# xmcd
#
# Track frame offsets: 
#        150
#        12609
#        24382
#        37490
#        48752
#        61628
#        74971
#        94418
#        118832
#        134749
#        156963
#        176048
#        195111
#        219574
#        242842
#        267125
#        289721
#        312818
#
# Disc length: 4494 seconds
#
# Revision: 2
# Processed by: cddbd v1.5.1PL0 Copyright (c) Steve Scherf et al.
# Submitted via: ExactAudioCopy v0.95a4
#
DISCID=13118c12
DTITLE=Various Artist - The Story of the Blues CD2
DYEAR=2003
DGENRE=Blues
TTITLE0=I Want Some Of Your Pie - Blind Boy Fuller (1939)
TTITLE1=Million Lonesome Women - Brownie McGhee (1941)
TTITLE2=Wild Cow Moan - Joe Williams (1947)
TTITLE3=All By Myself - Big Bill Bronzy (1941)
TTITLE4=Roll 'Em Pete - Joe Turner (1933)
TTITLE5=Bald Headed Woman - Lightining Hopkins (1952)
TTITLE6=You Shook Me - Willie Dixon (1969)
TTITLE7=Mannish Boy - Muddy Waters (1977)
TTITLE8=She Caught The Katy And Left Me A Mule To Ride - Taj Mahal (19
TTITLE8=68)
TTITLE9=I Ain't Superstitious - Jeff Beck Group (1968)
TTITLE10=Killing Floor - The Electric Flag (1968)
TTITLE11=One Good Man - Janis Joplin (1969)
TTITLE12=Black Magic WomanGypsy Queen (1970)
TTITLE13=Highway 61 Revisited - Johnny Winter (1969)
TTITLE14=Texas Flood - Stevie Ray Vaughan (1983)
TTITLE15=Dangerous Mood - Keb' Mo' (1996)
TTITLE16=Cry A While - Bob Dylan (2001
TTITLE17=Ride On - Little Axe (1995)
EXTD=YEAR: 2003
EXTT0=
EXTT1=
EXTT2=
EXTT3=
EXTT4=
EXTT5=
EXTT6=
EXTT7=
EXTT8=
EXTT9=
EXTT10=
EXTT11=
EXTT12=
EXTT13=
EXTT14=
EXTT15=
EXTT16=
EXTT17=
PLAYORDER=
